<svg xmlns="http://www.w3.org/2000/svg" width="20" height="17.334" viewBox="0 0 20 17.334">
  <g id="Grupo_2562" data-name="Grupo 2562" transform="translate(8 -36.54)">
    <g id="Grupo_1536" data-name="Grupo 1536" transform="translate(-8 36.54)">
      <path id="Trazado_1422" data-name="Trazado 1422" d="M19.219,39.988a2.569,2.569,0,0,0-1.885-.781H15l-.531-1.417a1.935,1.935,0,0,0-.724-.88,1.855,1.855,0,0,0-1.078-.37H7.333a1.855,1.855,0,0,0-1.078.37,1.935,1.935,0,0,0-.724.88L5,39.207H2.667a2.569,2.569,0,0,0-1.885.781A2.569,2.569,0,0,0,0,41.873v9.333a2.569,2.569,0,0,0,.781,1.885,2.569,2.569,0,0,0,1.885.781H17.333A2.668,2.668,0,0,0,20,51.207V41.873A2.569,2.569,0,0,0,19.219,39.988ZM13.3,49.837a4.494,4.494,0,0,1-3.3,1.37,4.494,4.494,0,0,1-3.3-1.37,4.652,4.652,0,0,1,0-6.594,4.494,4.494,0,0,1,3.3-1.37,4.494,4.494,0,0,1,3.3,1.37,4.652,4.652,0,0,1,0,6.594Z" transform="translate(0 -36.54)" fill="#fff"/>
      <path id="Trazado_1423" data-name="Trazado 1423" d="M194.294,228.4a2.443,2.443,0,1,0,1.723.715A2.348,2.348,0,0,0,194.294,228.4Z" transform="translate(-184.294 -220.709)" fill="#fff"/>
    </g>
  </g>
</svg>
