<svg xmlns="http://www.w3.org/2000/svg" width="15.665" height="15.665" viewBox="0 0 15.665 15.665">
  <path id="Trazado_939" data-name="Trazado 939" d="M0,6.364A1.955,1.955,0,0,0,1.469,8.253v6.433H.49a.49.49,0,0,0,0,.979H15.176a.49.49,0,0,0,0-.979H14.2V8.253a1.955,1.955,0,0,0,1.469-1.889v-.49H0ZM9.791,8.322a1.958,1.958,0,0,0,1.958-1.958,1.955,1.955,0,0,0,1.469,1.889v6.433H5.875V8.322A1.958,1.958,0,0,0,7.833,6.364,1.959,1.959,0,0,0,9.791,8.322ZM5.385,8.253v6.433H2.448V8.253A1.955,1.955,0,0,0,3.916,6.364,1.955,1.955,0,0,0,5.385,8.253Zm8.322-6.785H1.958L0,5.385H15.665ZM4.136,2.557,3.157,4.515a.247.247,0,0,1-.22.136.237.237,0,0,1-.109-.026A.244.244,0,0,1,2.719,4.3L3.7,2.339a.245.245,0,0,1,.438.218Zm1.958,0L5.115,4.515a.247.247,0,0,1-.22.136.237.237,0,0,1-.109-.026A.244.244,0,0,1,4.677,4.3l.979-1.958a.245.245,0,0,1,.438.218ZM8.077,4.406a.245.245,0,1,1-.49,0V2.448a.245.245,0,1,1,.49,0Zm2.811.214a.244.244,0,0,1-.333-.1L9.485,2.565a.245.245,0,0,1,.43-.235l1.071,1.958A.246.246,0,0,1,10.888,4.62Zm1.949,0a.229.229,0,0,1-.109.026.242.242,0,0,1-.218-.136l-.979-1.958a.245.245,0,1,1,.438-.218L12.948,4.3A.245.245,0,0,1,12.837,4.625Zm-8.676,7.2V10.7a.484.484,0,0,1-.245-.415.49.49,0,1,1,.979,0,.482.482,0,0,1-.245.415v1.128a.482.482,0,0,1,.245.415.49.49,0,1,1-.734-.415ZM1.958.49A.49.49,0,0,1,2.448,0h10.77a.49.49,0,0,1,0,.979H2.448A.49.49,0,0,1,1.958.49ZM8.58,10.943,8.234,10.6,9.619,9.212l.346.346Zm0,1.384-.346-.346L11,9.212l.346.346ZM11,10.6l.346.346L9.965,12.327l-.346-.346Z" fill="#e2007a"/>
</svg>
