<svg xmlns="http://www.w3.org/2000/svg" width="18" height="26" viewBox="0 0 23.401 30.273">  <g id="Grupo_1792" data-name="Grupo 1792" transform="translate(-102.609 -1.405)">    <path id="Trazado_1545" data-name="Trazado 1545" d="M125.137,48.342H103.482a.622.622,0,0,1-.621-.66L104.105,26.8a.622.622,0,0,1,.621-.585h19.165a.622.622,0,0,1,.621.585l1.245,20.886a.622.622,0,0,1-.621.66ZM104.142,47.1h20.334l-1.171-19.641H105.313Z" transform="translate(0 -16.913)" fill="#fff" stroke="#fff" stroke-width="0.5"/>    <path id="Trazado_1546" data-name="Trazado 1546" d="M132.428,12.263a.623.623,0,0,1-.622-.622V7.093a4.193,4.193,0,0,0-8.387,0V11.64a.622.622,0,1,1-1.245,0V7.093a5.438,5.438,0,0,1,10.877,0V11.64A.622.622,0,0,1,132.428,12.263Z" transform="translate(-13.303 0)" fill="#fff" stroke="#fff" stroke-width="0.5"/>  </g></svg>
